<?xml version="1.0" standalone="no"?>
<!DOCTYPE svg PUBLIC "-//W3C//DTD SVG 20010904//EN"
 "http://www.w3.org/TR/2001/REC-SVG-20010904/DTD/svg10.dtd">
<svg version="1.0" xmlns="http://www.w3.org/2000/svg"
 width="16.000000pt" height="16.000000pt" viewBox="0 0 16.000000 16.000000"
 preserveAspectRatio="xMidYMid meet">
<metadata>
Created by potrace 1.11, written by Peter Selinger 2001-2013
</metadata>
<g transform="translate(0.000000,16.000000) scale(0.004000,-0.004000)"
fill="#000000" stroke="none">
<path d="M2460 3514 c-36 -7 -81 -16 -100 -20 -61 -11 -69 -14 -154 -52 -75
-34 -171 -95 -213 -135 l-33 -31 -35 17 c-20 9 -42 17 -50 17 -8 0 -15 4 -15
8 0 15 -49 32 -88 32 -21 0 -42 4 -48 9 -5 5 -34 12 -64 15 -30 4 -66 9 -80
11 -59 13 -289 -1 -319 -19 -3 -2 -26 -7 -51 -10 -119 -16 -340 -86 -340 -108
0 -4 -7 -8 -16 -8 -19 0 -174 -154 -174 -173 0 -8 -6 -17 -13 -20 -14 -5 -87
-165 -92 -201 -2 -12 -6 -37 -9 -58 -4 -20 -9 -70 -10 -111 -2 -42 -6 -79 -9
-84 -2 -4 -7 -21 -11 -37 -13 -52 -67 -124 -113 -147 -24 -12 -58 -38 -76 -56
-17 -19 -45 -40 -62 -47 -45 -20 -113 -84 -149 -141 -49 -79 -57 -98 -70 -185
-2 -14 -7 -36 -11 -50 l-6 -25 15 25 c8 14 15 19 16 13 0 -7 7 -13 15 -13 8 0
15 -4 15 -10 0 -5 -5 -10 -10 -10 -6 0 -9 -13 -8 -28 1 -15 -2 -33 -6 -40 -5
-8 -3 -11 6 -10 14 3 14 -3 3 -39 -4 -14 -2 -23 4 -23 15 0 14 -37 -1 -42 -10
-4 -10 -10 -1 -31 8 -18 9 -27 2 -27 -6 0 -8 -4 -4 -9 3 -5 1 -12 -5 -16 -5
-3 -10 -11 -10 -17 0 -6 6 -6 15 2 14 11 16 9 15 -21 0 -19 0 -41 0 -49 1 -24
-10 -134 -15 -147 -2 -7 -1 -12 3 -10 10 3 13 -15 6 -36 -4 -11 1 -24 13 -33
13 -10 15 -16 6 -22 -17 -11 -10 -41 28 -120 69 -143 208 -327 217 -286 4 17
4 17 37 2 16 -7 24 -17 21 -27 -4 -11 12 -27 46 -51 28 -19 57 -40 63 -47 28
-27 169 -113 213 -128 26 -9 63 -23 82 -30 69 -25 106 -34 175 -45 78 -12 159
-36 191 -57 36 -23 240 -9 359 26 55 16 114 35 130 42 17 7 35 14 40 14 6 1
24 7 40 14 17 6 41 16 55 21 108 43 215 25 412 -68 154 -73 178 -81 293 -97
39 -5 193 -6 225 -1 14 3 50 8 80 12 30 3 64 10 75 14 11 4 23 8 27 9 4 1 33
15 64 33 94 51 146 100 192 181 16 28 53 80 81 115 28 35 51 67 51 71 0 4 12
21 26 37 26 29 68 104 59 104 -2 0 -1 11 4 23 5 13 12 47 15 76 3 29 10 60 15
69 5 9 11 44 13 78 3 33 8 66 11 71 4 6 49 27 99 47 206 80 300 191 389 461
19 59 21 279 3 349 -33 125 -97 212 -267 360 -71 62 -115 124 -122 172 -41
298 -174 525 -365 619 -98 48 -252 102 -389 135 -99 23 -249 25 -351 4z"/>
</g>
</svg>
