<svg xmlns="http://www.w3.org/2000/svg" xmlns:xl="http://www.w3.org/1999/xlink" viewBox="46 139 451 336" width="451pt" height="448"><defs><filter id="b" filterUnits="userSpaceOnUse"><feGaussianBlur in="SourceAlpha" result="blur" stdDeviation="3.488"/><feOffset in="blur" result="offset" dy="4"/><feFlood flood-color="#000" flood-opacity=".75" result="flood"/><feComposite in="flood" in2="offset" operator="in"/></filter></defs><g fill="none"><title>Canvas 1</title><path fill="#fff" d="M0 0h559v783H0z"/><title>Layer 1</title><use xl:href="#a" filter="url(#b)"/><use xl:href="#c" filter="url(#b)"/><use xl:href="#d" filter="url(#b)"/><use xl:href="#e" filter="url(#b)"/><use xl:href="#f" filter="url(#b)"/><use xl:href="#g" filter="url(#b)"/><use xl:href="#h" filter="url(#b)"/><use xl:href="#i" filter="url(#b)"/><use xl:href="#j" filter="url(#b)"/><g id="a"><path fill="red" d="M57.481 181.481h428.148v34.815H57.481z"/><path stroke="#000" stroke-linecap="round" stroke-linejoin="round" d="M57.481 181.481h428.148v34.815H57.481z"/><text transform="translate(62.481 189.889)" fill="#fff"><tspan font-family="Helvetica" font-size="14" font-weight="500" x="102.416" y="14" textLength="33.462">Red: </tspan><tspan font-family="Courier New" font-size="14" font-weight="500" x="135.878" y="14" textLength="58.81">#FF0000</tspan><tspan font-family="Helvetica" font-size="14" font-weight="500" x="194.688" y="14" textLength="20.228"> or </tspan><tspan font-family="Courier New" font-size="14" font-weight="500" x="214.915" y="14" textLength="100.816">rgb(255,0,0)</tspan></text></g><g id="c"><path fill="#000" d="M57.481 146.667h428.148v34.815H57.481z"/><path stroke="#000" stroke-linecap="round" stroke-linejoin="round" d="M57.481 146.667h428.148v34.815H57.481z"/><text transform="translate(62.481 155.074)" fill="#fff"><tspan font-family="Helvetica" font-size="14" font-weight="500" x="106.542" y="14" textLength="42.014">Black: </tspan><tspan font-family="Courier New" font-size="14" font-weight="500" x="148.556" y="14" textLength="58.81">#000000</tspan><tspan font-family="Helvetica" font-size="14" font-weight="500" x="207.365" y="14" textLength="20.228"> or </tspan><tspan font-family="Courier New" font-size="14" font-weight="500" x="227.593" y="14" textLength="84.014">rgb(0,0,0)</tspan></text></g><g id="d"><path fill="#0f0" d="M57.481 216.296h428.148v34.815H57.481z"/><path stroke="#000" stroke-linecap="round" stroke-linejoin="round" d="M57.481 216.296h428.148v34.815H57.481z"/><text transform="translate(62.481 224.704)" fill="#000"><tspan font-family="Helvetica" font-size="14" font-weight="500" x="95.803" y="14" textLength="46.689">Green: </tspan><tspan font-family="Courier New" font-size="14" font-weight="500" x="142.492" y="14" textLength="58.81">#00FF00</tspan><tspan font-family="Helvetica" font-size="14" font-weight="500" x="201.302" y="14" textLength="20.228"> or </tspan><tspan font-family="Courier New" font-size="14" font-weight="500" x="221.529" y="14" textLength="100.816">rgb(0,255,0)</tspan></text></g><g id="e"><path fill="#00f" d="M57.481 251.111h428.148v34.815H57.481z"/><path stroke="#000" stroke-linecap="round" stroke-linejoin="round" d="M57.481 251.111h428.148v34.815H57.481z"/><text transform="translate(62.481 259.519)" fill="#fff"><tspan font-family="Helvetica" font-size="14" font-weight="500" x="101.247" y="14" textLength="35.8">Blue: </tspan><tspan font-family="Courier New" font-size="14" font-weight="500" x="137.047" y="14" textLength="58.81">#0000FF</tspan><tspan font-family="Helvetica" font-size="14" font-weight="500" x="195.857" y="14" textLength="20.228"> or </tspan><tspan font-family="Courier New" font-size="14" font-weight="500" x="216.084" y="14" textLength="100.816">rgb(0,0,255)</tspan></text></g><g id="f"><path fill="#ff0" d="M57.481 285.926h428.148v34.815H57.481z"/><path stroke="#000" stroke-linecap="round" stroke-linejoin="round" d="M57.481 285.926h428.148v34.815H57.481z"/><text transform="translate(62.481 294.333)" fill="#000"><tspan font-family="Helvetica" font-size="14" font-weight="500" x="86.878" y="14" textLength="9.338">Y</tspan><tspan font-family="Helvetica" font-size="14" font-weight="500" x="94.931" y="14" textLength="39.683">ellow: </tspan><tspan font-family="Courier New" font-size="14" font-weight="500" x="134.614" y="14" textLength="58.81">#FFFF00</tspan><tspan font-family="Helvetica" font-size="14" font-weight="500" x="193.423" y="14" textLength="20.228"> or </tspan><tspan font-family="Courier New" font-size="14" font-weight="500" x="213.651" y="14" textLength="117.619">rgb(255,255,0)</tspan></text></g><g id="g"><path fill="#0ff" d="M57.481 320.741h428.148v34.815H57.481z"/><path stroke="#000" stroke-linecap="round" stroke-linejoin="round" d="M57.481 320.741h428.148v34.815H57.481z"/><text transform="translate(62.481 329.148)" fill="#000"><tspan font-family="Helvetica" font-size="14" font-weight="500" x="90.515" y="14" textLength="40.462">Cyan: </tspan><tspan font-family="Courier New" font-size="14" font-weight="500" x="130.977" y="14" textLength="58.81">#00FFFF</tspan><tspan font-family="Helvetica" font-size="14" font-weight="500" x="189.786" y="14" textLength="20.228"> or </tspan><tspan font-family="Courier New" font-size="14" font-weight="500" x="210.014" y="14" textLength="117.619">rgb(0,255,255)</tspan></text></g><g id="h"><path fill="#f0f" d="M57.481 355.556h428.148v34.815H57.481z"/><path stroke="#000" stroke-linecap="round" stroke-linejoin="round" d="M57.481 355.556h428.148v34.815H57.481z"/><text transform="translate(62.481 363.963)" fill="#000"><tspan font-family="Helvetica" font-size="14" font-weight="500" x="79.615" y="14" textLength="62.262">Magenta: </tspan><tspan font-family="Courier New" font-size="14" font-weight="500" x="141.877" y="14" textLength="58.81">#FF00FF</tspan><tspan font-family="Helvetica" font-size="14" font-weight="500" x="200.686" y="14" textLength="20.228"> or </tspan><tspan font-family="Courier New" font-size="14" font-weight="500" x="220.914" y="14" textLength="117.619">rgb(255,0,255)</tspan></text></g><g id="i"><path fill="silver" d="M57.481 390.704h428.148v34.815H57.481z"/><path stroke="#000" stroke-linecap="round" stroke-linejoin="round" d="M57.481 390.704h428.148v34.815H57.481z"/><text transform="translate(62.481 399.112)" fill="#000"><tspan font-family="Helvetica" font-size="14" font-weight="500" x="83.286" y="14" textLength="38.117">Grey: </tspan><tspan font-family="Courier New" font-size="14" font-weight="500" x="121.403" y="14" textLength="58.81">#C0C0C0</tspan><tspan font-family="Helvetica" font-size="14" font-weight="500" x="180.213" y="14" textLength="20.228"> or </tspan><tspan font-family="Courier New" font-size="14" font-weight="500" x="200.44" y="14" textLength="134.422">rgb(192,192,192)</tspan></text></g><g id="j"><path fill="#fff" d="M57.481 424.445h428.148v34.815H57.481z"/><path stroke="#000" stroke-linecap="round" stroke-linejoin="round" d="M57.481 424.445h428.148v34.815H57.481z"/><text transform="translate(62.481 432.852)" fill="#000"><tspan font-family="Helvetica" font-size="14" font-weight="500" x="80.562" y="14" textLength="43.565">White: </tspan><tspan font-family="Courier New" font-size="14" font-weight="500" x="124.127" y="14" textLength="58.81">#FFFFFF</tspan><tspan font-family="Helvetica" font-size="14" font-weight="500" x="182.937" y="14" textLength="20.228"> or </tspan><tspan font-family="Courier New" font-size="14" font-weight="500" x="203.164" y="14" textLength="134.422">rgb(255,255,255)</tspan></text></g></g></svg>