<?xml version="1.0" encoding="utf-8"?>
<!-- Generator: Adobe Illustrator 19.0.0, SVG Export Plug-In . SVG Version: 6.00 Build 0)  -->
<svg version="1.1" id="Layer_1" xmlns="http://www.w3.org/2000/svg" xmlns:xlink="http://www.w3.org/1999/xlink" x="0px" y="0px"
	 width="215.2px" height="131.5px" viewBox="-389 391 215.2 131.5" style="enable-background:new -389 391 215.2 131.5;"
	 xml:space="preserve"  fill="#006bde">
<g id="get" class="st0">
	<g class="st1">
		<polygon class="st2" points="-23.6,576.7 -24.7,578.1 -24.8,578.1 -33.6,589.7 -33.6,589.8 -66.9,633.6 -78.3,618.7 -90.9,618.7 
			-73.2,641.9 -90,663.9 -77.4,663.9 -66.9,650.2 -56.5,663.9 -43.9,663.9 -60.7,641.9 -33.6,606.4 -33.6,696.1 -141.6,696.1 
			-141.6,673.8 -151.6,673.8 -151.6,706.1 -23.6,706.1 -23.6,593.2 -23.6,593.2 		"/>
		<polygon class="st2" points="-141.6,588.1 -45,588.1 -37.4,578.1 -151.6,578.1 -151.6,609.1 -141.6,609.1 		"/>
	</g>
	<path class="st3" d="M-127.3,656l-4-10.8l21.9-26.4h10V646h6v10h-6v8h-10v-8H-127.3z M-120.1,646h10.7v-12.7L-120.1,646z"/>
	<g class="st1">
		<path class="st4" d="M-215.5,658.8c0,3.6-0.8,6.7-2.3,9.4c-1.6,2.7-3.8,4.7-6.6,6.2c-2.8,1.4-6.1,2.2-9.8,2.2
			c-5.5,0-10.6-1.8-15.2-5.3l2.5-4.2c1.9,1.6,3.8,2.7,5.9,3.5c2,0.8,4.2,1.2,6.7,1.2c4,0,7.3-1.2,9.7-3.5c2.4-2.3,3.7-5.4,3.7-9.3
			v-5.6c-1.3,2.5-3.1,4.4-5.5,5.8c-2.4,1.3-5.1,2-8.2,2c-3.3,0-6.2-0.8-8.8-2.3s-4.6-3.7-6-6.4c-1.4-2.7-2.2-5.8-2.2-9.3
			c0-3.4,0.7-6.5,2.1-9.2c1.4-2.7,3.4-4.8,5.9-6.3s5.5-2.3,8.7-2.3c3.1,0,5.9,0.7,8.3,2c2.4,1.3,4.2,3.3,5.6,5.8v-7.5h5.5
			L-215.5,658.8L-215.5,658.8z M-227.1,654.8c1.9-1.1,3.4-2.7,4.5-4.7s1.6-4.2,1.6-6.7s-0.5-4.8-1.6-6.8s-2.6-3.6-4.5-4.7
			c-1.9-1.1-4.1-1.7-6.6-1.7c-2.4,0-4.6,0.6-6.5,1.7c-1.9,1.1-3.4,2.7-4.5,4.7s-1.7,4.3-1.7,6.8s0.6,4.8,1.7,6.7
			c1.1,2,2.6,3.5,4.5,4.7c1.9,1.1,4.1,1.7,6.5,1.7C-231.2,656.5-229,655.9-227.1,654.8z"/>
		<path class="st4" d="M-175,631c3,3.7,4.3,8.8,4,15.3h-30.3c0.5,3.6,1.9,6.5,4.4,8.7s5.5,3.2,9.1,3.2c2.3,0,4.4-0.4,6.4-1.2
			c2-0.8,3.7-2,5.1-3.4l3,3.2c-1.8,2-4,3.5-6.5,4.6c-2.6,1.1-5.4,1.6-8.4,1.6c-3.6,0-6.8-0.8-9.6-2.4s-5-3.8-6.5-6.6
			c-1.6-2.8-2.3-6.1-2.3-9.8s0.8-6.9,2.4-9.8c1.6-2.8,3.8-5,6.6-6.6c2.8-1.6,6-2.4,9.6-2.4C-182.3,625.4-177.9,627.3-175,631z
			 M-179.5,633.3c-2.2-2.1-5.2-3.1-8.8-3.1c-3.5,0-6.5,1.1-8.8,3.2c-2.4,2.1-3.7,4.9-4.2,8.5h25.4
			C-176.1,638.2-177.3,635.4-179.5,633.3z"/>
		<path class="st4" d="M-150.7,663c-2.9,0-5.2-0.9-6.9-2.6c-1.7-1.8-2.6-4.4-2.6-7.9v-21.2h-5.3v-4.4h5.3v-9.8h5.4v9.8l11.8-0.1v4.5
			h-11.8v20.2c0,2.2,0.4,3.8,1.2,4.8s2.1,1.5,3.7,1.5c1.9,0,3.9-0.6,5.9-1.9l1.6,4.4C-145,662-147.8,663-150.7,663z"/>
	</g>
</g>
<g id="labs" class="st0">
	<path class="st5" d="M-259.8,655.5l-4-10.8l21.9-26.4h10v27.2h6v10h-6v8h-10v-8H-259.8z M-252.6,645.5h10.7v-12.7L-252.6,645.5z"/>
	<g class="st1">
		<path class="st6" d="M-114.8,656.8v5.4h-27.3v-49.4h5.7v44H-114.8z"/>
		<path class="st6" d="M-83.4,656.5c-3,4-7.5,6-13.6,6c-2.5,0-4.7-0.5-6.6-1.5s-3.4-2.3-4.4-4.1c-1-1.7-1.6-3.7-1.6-5.8
			c0-3.2,1.2-5.8,3.7-7.7c2.4-1.9,5.9-2.9,10.3-2.9h12.2v-2.2c0-2.8-0.8-4.9-2.5-6.4s-4.2-2.3-7.4-2.3c-3.8,0-7.7,1.4-11.8,4.2
			l-2.3-4c2.6-1.7,5.1-3,7.3-3.8c2.2-0.8,4.8-1.2,7.9-1.2c4.6,0,8.1,1.1,10.6,3.4s3.7,5.4,3.8,9.4l0.1,24.6h-5.4v-5.7H-83.4z
			 M-87.9,655.4c2.2-1.5,3.7-3.5,4.4-6.1v-4.4H-95c-6.3,0-9.4,2-9.4,6c0,2.1,0.8,3.7,2.3,4.9c1.6,1.2,3.6,1.8,6.2,1.8
			C-92.8,657.7-90.1,656.9-87.9,655.4z"/>
		<path class="st6" d="M-36.3,627.2c2.7,1.6,4.8,3.8,6.3,6.7c1.5,2.9,2.3,6.1,2.3,9.8c0,3.6-0.7,6.9-2.2,9.7
			c-1.5,2.8-3.6,5.1-6.2,6.6c-2.7,1.6-5.8,2.4-9.3,2.4c-3.3,0-6.2-0.7-8.6-2.2c-2.5-1.4-4.4-3.4-5.8-6v8h-5.5v-52.4h5.5V633
			c1.4-2.6,3.3-4.7,5.7-6.1c2.5-1.4,5.3-2.1,8.6-2.1C-42.1,624.8-39,625.6-36.3,627.2z M-39.7,655.6c2-1.2,3.6-2.8,4.7-4.9
			s1.7-4.5,1.7-7.1c0-2.6-0.6-5-1.7-7.1s-2.7-3.7-4.7-4.9c-2-1.2-4.3-1.8-6.8-1.8c-2.6,0-4.9,0.6-6.9,1.8c-2,1.2-3.6,2.8-4.7,4.9
			s-1.7,4.5-1.7,7.1c0,2.7,0.6,5.1,1.7,7.2c1.1,2.1,2.7,3.7,4.7,4.9s4.3,1.8,6.9,1.8C-44,657.4-41.8,656.8-39.7,655.6z"/>
		<path class="st6" d="M-1.8,625.7c2.1,0.6,3.9,1.4,5.4,2.5l-2.1,4.4c-1.4-0.9-3.1-1.7-4.9-2.2s-3.5-0.8-5.2-0.8
			c-2.2,0-4,0.4-5.3,1.2s-2,2.1-2,3.7c0,1.1,0.4,2.1,1.1,2.8c0.8,0.8,1.7,1.4,2.8,1.8c1.1,0.5,2.6,1,4.6,1.5
			c2.6,0.8,4.7,1.5,6.3,2.3c1.6,0.8,3,1.9,4.2,3.3c1.1,1.4,1.7,3.3,1.7,5.6c0,3.5-1.3,6.1-3.9,7.9c-2.6,1.8-5.8,2.7-9.7,2.7
			c-2.7,0-5.3-0.5-7.8-1.4s-4.7-2.2-6.4-3.8l2.1-4.2c1.6,1.4,3.5,2.6,5.7,3.4c2.2,0.9,4.4,1.3,6.7,1.3c2.3,0,4.3-0.5,5.7-1.4
			s2.2-2.3,2.2-4.1c0-1.8-0.7-3.1-2.1-4c-1.4-0.9-3.6-1.7-6.6-2.6c-2.6-0.8-4.7-1.6-6.2-2.3s-2.8-1.7-4-3.1
			c-1.1-1.4-1.7-3.2-1.7-5.4c0-3.4,1.2-5.9,3.7-7.6s5.5-2.5,9.3-2.5C-6,624.8-3.8,625.1-1.8,625.7z"/>
	</g>
	<polygon class="st5" points="-156.7,577.5 -156.7,576.8 -157.2,577.5 -157.8,577.5 -166.1,588.5 -166.1,589.2 -199.4,633.1 
		-210.8,618.1 -223.4,618.1 -205.7,641.3 -222.5,663.4 -209.9,663.4 -199.4,649.6 -189,663.4 -176.4,663.4 -193.2,641.3 
		-166.1,605.8 -166.1,695.5 -274.1,695.5 -274.1,587.5 -177.9,587.5 -170.3,577.5 -284.1,577.5 -284.1,705.5 -156.1,705.5 
		-156.1,577.5 	"/>
</g>
<g>
	<polygon class="st7" points="-292.9,403.3 -196.2,403.3 -188.6,393.3 -302.9,393.3 -302.9,424.3 -292.9,424.3 	"/>
	<polygon class="st7" points="-176,393.3 -176.1,393.3 -184.9,404.9 -184.9,405.1 -218.2,448.9 -229.5,433.9 -242.1,433.9 
		-224.5,457.1 -241.2,479.2 -228.7,479.2 -218.2,465.4 -207.7,479.2 -195.1,479.2 -211.9,457.1 -184.9,421.6 -184.9,511.3 
		-292.9,511.3 -292.9,489 -302.9,489 -302.9,521.3 -174.9,521.3 -174.9,408.4 -174.9,391.9 	"/>
	<path class="st7" d="M-250.7,479.2v-8h6v-10h-6V434h-10l-21.9,26.4l4,10.8h17.9v8H-250.7z M-271.3,461.3l10.7-12.7v12.7H-271.3z"/>
	<path class="st7" d="M-354.8,438c-3-1.8-6.5-2.7-10.3-2.7c-3.7,0-6.8,0.8-9.7,2.4c-0.8,0.5-1.6,1-2.3,1.6v-21h-10v60.9h10v-4
		c0.7,0.6,1.5,1.2,2.4,1.7c2.7,1.7,6,2.5,9.7,2.5c3.9,0,7.4-0.9,10.4-2.7c2.9-1.7,5.3-4.3,7.1-7.5c1.6-3.1,2.5-6.7,2.5-10.8
		c0-3.8-0.8-9.4-2.6-12.8C-349.3,442.4-351.7,439.8-354.8,438z M-366.1,444.8c2.1,0,4,0.5,5.6,1.5c1.7,1,3,2.4,3.9,4
		c0.9,1.6,1.4,5.5,1.4,8.1c0,2.2-0.5,4.2-1.4,6.1c-0.9,1.7-2.1,3-3.9,4c-1.6,1-3.5,1.5-5.6,1.6c-2.2,0-4.1-0.5-5.7-1.5
		c-1.7-1-3-2.3-3.9-4c-1-1.8-1.4-3.9-1.4-6.2c0-2.5,0.6-6.4,1.4-8.1c0.9-1.7,2.1-3,3.9-4C-370.2,445.3-368.3,444.8-366.1,444.8z"/>
	<rect x="-339.9" y="434.5" class="st7" width="9.9" height="44.7"/>
	<path class="st7" d="M-335,418c-1.6,0-3,0.6-4.2,1.8c-1.1,1.1-1.7,2.5-1.7,4.3c0,1.7,0.6,3.2,1.7,4.3c1.1,1.1,2.6,1.8,4.2,1.8
		s3.1-0.6,4.2-1.8c1.1-1.1,1.7-2.5,1.7-4.3c0-1.7-0.6-3.2-1.7-4.3C-332,418.6-333.4,418-335,418z"/>
	<polygon class="st7" points="-289.8,470 -310.7,469.9 -289.7,441.7 -289.7,434.5 -323.5,434.4 -323.5,443.7 -303.1,443.8 
		-324.2,472 -324.2,479.2 -286.8,479.3 	"/>
</g>
</svg>
