<?xml version="1.0" encoding="utf-8"?>
<!-- Generator: Adobe Illustrator 19.0.0, SVG Export Plug-In . SVG Version: 6.00 Build 0)  -->
<svg version="1.1" id="Layer_1" xmlns="http://www.w3.org/2000/svg" xmlns:xlink="http://www.w3.org/1999/xlink" x="0px" y="0px"
	 width="500px" height="289px" viewBox="-389 391 500 289" enable-background="new -389 391 500 289" xml:space="preserve">
<g>
	<polygon fill="#c13c44" points="96.7,403 96.5,403 78.3,427 78.3,427.1 9.2,518 -14.5,487.1 -40.6,487.1 -3.9,535.2 -38.8,581 
		-12.6,581 9.2,552.5 30.7,581 56.9,581 22,535.2 78.3,461.6 78.3,647.8 -145.8,647.8 -145.8,601.5 -166.6,601.5 -166.6,668.5 
		99,668.5 99,434.2 99,400 	"/>
	<polygon fill="#c13c44" points="-145.8,423.6 54.6,423.6 70.4,403 -166.6,403 -166.6,467.2 -145.8,467.2 	"/>
	<path fill="#c13c44" d="M-58.3,581.2v-16.6h12.4v-20.8h-12.4v-56.4H-79l-45.4,54.8l8.3,22.4H-79v16.6
		C-79,581.2-58.3,581.2-58.3,581.2z M-101.2,543.8l22.2-26.3v26.3H-101.2z"/>
	<path fill="#c13c44" d="M-314.7,505.4c-1.7-1.5-3.5-2.8-5.5-3.8c-5.7-3.1-12.2-4.7-19.2-4.7c-7.4,0-14.3,1.9-20.2,5.4
		c-5.9,3.6-10.6,8.5-13.8,14.7s-4.8,13.2-4.8,21c0,7.6,1.7,14.8,5,21.2c3.4,6.5,8.1,11.5,14.1,15c6.1,3.5,13,5.3,20.3,5.3
		c6.9,0,13.3-1.6,19.1-4.7c1.9-1.1,3.6-2.3,5.2-3.7c-0.1,6.6-2.2,12-6.4,16c-4.2,4.1-10,6.1-17.3,6.1c-4.6,0-8.7-0.7-12.4-2.2
		c-4.1-1.5-7.6-3.6-11-6.6l-3.7-3.2l-9.6,16.1l2.9,2.2c10.3,7.9,21.8,11.8,34,11.8c8.1,0,15.5-1.7,22.3-5.1
		c6.7-3.6,11.7-8.3,15.4-14.5c3.5-6.3,5.3-13.6,5.3-21.5v-72.6h-19.7L-314.7,505.4L-314.7,505.4z M-317.5,550.2
		c-2,3.6-4.6,6.3-7.8,8.2l0,0c-3.4,2-7.3,3-11.6,3c-4.2,0-8-1-11.3-2.9c-3.5-2.2-6.1-4.9-8-8.3c-1.9-3.4-3-7.4-3-11.8
		c0-4.4,1-8.5,3-12.1c2-3.6,4.6-6.3,7.8-8.2c3.4-2,7.2-3,11.4-3c4.3,0,8.2,1,11.6,3c3.2,1.9,5.8,4.6,7.8,8.2
		c1.9,3.4,2.8,7.5,2.8,12.1C-314.7,543-315.6,546.8-317.5,550.2z"/>
	<path fill="#c13c44" d="M-242.1,497c-8.2,0-15.6,1.9-22,5.5c-6.4,3.7-11.6,8.8-15.3,15.3c-3.7,6.7-5.5,14-5.5,22.3
		c0,8.7,1.8,16.2,5.3,22.3c3.4,6.4,8.5,11.6,15.1,15.3c6.4,3.7,13.8,5.5,22,5.5c6.9,0,13.3-1.2,19.1-3.7c5.9-2.6,10.9-6.2,14.9-10.6
		l2.6-2.8l-11.8-12.5l-3,3c-2.7,2.7-5.8,4.8-9.2,6.1c-3.7,1.5-7.5,2.2-11.7,2.2c-6.7,0-11.8-1.8-16.1-5.6c-3.2-2.8-5.4-6.4-6.8-10.8
		h61.7l0.2-4c0.7-14.5-2.4-26.1-9.2-34.5C-218.7,501.5-229.1,497-242.1,497z M-264.6,531.2c1.2-4.3,3.3-7.7,6.4-10.4
		c4-3.7,9.2-5.6,15.5-5.6c6.5,0,11.7,1.8,15.4,5.3c2.9,2.8,4.8,6.3,5.7,10.7H-264.6z"/>
	<path fill="#c13c44" d="M-145.2,577l2.8-1.8l-6.2-17.1l-4.4,2.8c-3.3,2.2-6.7,3.3-10,3.3c-1.5,0-3.4-0.3-4.4-1.6
		c-0.6-0.7-1.6-2.7-1.6-7.4v-37.7h24.5v-17.7L-169,500v-20.3h-19.5V500h-11v17.4h11v39.8c0,8.2,2.2,14.7,6.6,19.3
		c4.4,4.4,10.2,6.6,17.2,6.6C-158.1,583.2-151.6,581.2-145.2,577z"/>
</g>
<g id="labs" display="none">
	<path display="inline" fill="#363636" d="M-49.8,445.5l-4-10.8l21.9-26.4h10v27.2h6v10h-6v8h-10v-8H-49.8z M-42.6,435.5h10.7v-12.7
		L-42.6,435.5z"/>
	<g display="inline">
		<path fill="#363636" stroke="#363636" stroke-width="4" stroke-miterlimit="10" d="M95.2,446.8v5.4H67.9v-49.4h5.7v44H95.2z"/>
		<path fill="#363636" stroke="#363636" stroke-width="4" stroke-miterlimit="10" d="M126.6,446.5c-3,4-7.5,6-13.6,6
			c-2.5,0-4.7-0.5-6.6-1.5s-3.4-2.3-4.4-4.1c-1-1.7-1.6-3.7-1.6-5.8c0-3.2,1.2-5.8,3.7-7.7c2.4-1.9,5.9-2.9,10.3-2.9h12.2v-2.2
			c0-2.8-0.8-4.9-2.5-6.4s-4.2-2.3-7.4-2.3c-3.8,0-7.7,1.4-11.8,4.2l-2.3-4c2.6-1.7,5.1-3,7.3-3.8c2.2-0.8,4.8-1.2,7.9-1.2
			c4.6,0,8.1,1.1,10.6,3.4c2.5,2.3,3.7,5.4,3.8,9.4l0.1,24.6h-5.4v-5.7C126.9,446.5,126.6,446.5,126.6,446.5z M122.1,445.4
			c2.2-1.5,3.7-3.5,4.4-6.1v-4.4H115c-6.3,0-9.4,2-9.4,6c0,2.1,0.8,3.7,2.3,4.9c1.6,1.2,3.6,1.8,6.2,1.8
			C117.2,447.7,119.9,446.9,122.1,445.4z"/>
		<path fill="#363636" stroke="#363636" stroke-width="4" stroke-miterlimit="10" d="M173.7,417.2c2.7,1.6,4.8,3.8,6.3,6.7
			s2.3,6.1,2.3,9.8c0,3.6-0.7,6.9-2.2,9.7c-1.5,2.8-3.6,5.1-6.2,6.6c-2.7,1.6-5.8,2.4-9.3,2.4c-3.3,0-6.2-0.7-8.6-2.2
			c-2.5-1.4-4.4-3.4-5.8-6v8h-5.5v-52.4h5.5V423c1.4-2.6,3.3-4.7,5.7-6.1c2.5-1.4,5.3-2.1,8.6-2.1
			C167.9,414.8,171,415.6,173.7,417.2z M170.3,445.6c2-1.2,3.6-2.8,4.7-4.9c1.1-2.1,1.7-4.5,1.7-7.1s-0.6-5-1.7-7.1
			s-2.7-3.7-4.7-4.9c-2-1.2-4.3-1.8-6.8-1.8c-2.6,0-4.9,0.6-6.9,1.8c-2,1.2-3.6,2.8-4.7,4.9c-1.1,2.1-1.7,4.5-1.7,7.1
			c0,2.7,0.6,5.1,1.7,7.2c1.1,2.1,2.7,3.7,4.7,4.9c2,1.2,4.3,1.8,6.9,1.8C166,447.4,168.2,446.8,170.3,445.6z"/>
		<path fill="#363636" stroke="#363636" stroke-width="4" stroke-miterlimit="10" d="M208.2,415.7c2.1,0.6,3.9,1.4,5.4,2.5l-2.1,4.4
			c-1.4-0.9-3.1-1.7-4.9-2.2c-1.8-0.5-3.5-0.8-5.2-0.8c-2.2,0-4,0.4-5.3,1.2c-1.3,0.8-2,2.1-2,3.7c0,1.1,0.4,2.1,1.1,2.8
			c0.8,0.8,1.7,1.4,2.8,1.8c1.1,0.5,2.6,1,4.6,1.5c2.6,0.8,4.7,1.5,6.3,2.3c1.6,0.8,3,1.9,4.2,3.3c1.1,1.4,1.7,3.3,1.7,5.6
			c0,3.5-1.3,6.1-3.9,7.9c-2.6,1.8-5.8,2.7-9.7,2.7c-2.7,0-5.3-0.5-7.8-1.4s-4.7-2.2-6.4-3.8l2.1-4.2c1.6,1.4,3.5,2.6,5.7,3.4
			c2.2,0.9,4.4,1.3,6.7,1.3s4.3-0.5,5.7-1.4c1.4-0.9,2.2-2.3,2.2-4.1c0-1.8-0.7-3.1-2.1-4c-1.4-0.9-3.6-1.7-6.6-2.6
			c-2.6-0.8-4.7-1.6-6.2-2.3c-1.5-0.7-2.8-1.7-4-3.1c-1.1-1.4-1.7-3.2-1.7-5.4c0-3.4,1.2-5.9,3.7-7.6c2.5-1.7,5.5-2.5,9.3-2.5
			C204,414.8,206.2,415.1,208.2,415.7z"/>
	</g>
	<polygon display="inline" fill="#363636" points="53.3,367.5 53.3,366.8 52.8,367.5 52.2,367.5 43.9,378.5 43.9,379.2 10.6,423.1 
		-0.8,408.1 -13.4,408.1 4.3,431.3 -12.5,453.4 0.1,453.4 10.6,439.6 21,453.4 33.6,453.4 16.8,431.3 43.9,395.8 43.9,485.5 
		-64.1,485.5 -64.1,377.5 32.1,377.5 39.7,367.5 -74.1,367.5 -74.1,495.5 53.9,495.5 53.9,367.5 	"/>
</g>
<g id="biz" display="none">
	<g display="inline">
		<polygon fill="#005E93" points="59,377.9 155.7,377.9 163.3,367.9 49,367.9 49,398.9 59,398.9 		"/>
		<polygon fill="#005E93" points="175.8,367.9 167,379.5 167,379.7 133.7,423.5 122.4,408.5 109.8,408.5 127.4,431.7 110.7,453.8 
			123.2,453.8 133.7,440 144.2,453.8 156.8,453.8 140,431.7 167,396.2 167,485.9 59,485.9 59,463.6 49,463.6 49,495.9 177,495.9 
			177,383 177,383 177,366.5 175.9,367.9 		"/>
	</g>
	<path display="inline" fill="#005E93" d="M73.3,445.8l-4-10.8l21.9-26.4h10v27.2h6v10h-6v8h-10v-8
		C91.2,445.8,73.3,445.8,73.3,445.8z M80.6,435.9h10.7v-12.7L80.6,435.9z"/>
	<g display="inline">
		<path fill="#005E93" stroke="#005E93" stroke-width="4.5" stroke-miterlimit="10" d="M-4,414.6c2.7,1.6,4.8,3.8,6.3,6.7
			c1.5,2.9,2.3,8.1,2.3,11.8c0,3.6-0.7,6.9-2.2,9.7c-1.5,2.8-3.6,5.1-6.2,6.6c-2.7,1.6-5.8,2.4-9.3,2.4c-3.3,0-6.2-0.7-8.6-2.2
			c-2.5-1.4-4.4-3.4-5.8-6v8H-33v-56.4h5.5v25.2c1.4-2.6,3.3-4.7,5.7-6.1c2.5-1.4,5.3-2.1,8.6-2.1C-9.8,412.2-6.7,413-4,414.6z
			 M-7.4,445c2-1.2,3.6-2.8,4.7-4.9S-1,435.6-1,433s-0.6-7-1.7-9.1s-2.7-3.7-4.7-4.9s-4.3-1.8-6.8-1.8c-2.6,0-4.9,0.6-6.9,1.8
			s-3.6,2.8-4.7,4.9s-1.7,6.5-1.7,9.1c0,2.7,0.6,5.1,1.7,7.2c1.1,2.1,2.7,3.7,4.7,4.9c2,1.2,4.3,1.8,6.9,1.8
			C-11.7,446.8-9.4,446.2-7.4,445z"/>
		<path fill="#005E93" stroke="#005E93" stroke-width="4.5" stroke-miterlimit="10" d="M19.5,396c0.7,0.7,1,1.6,1,2.7
			c0,1.1-0.3,2-1,2.7c-0.7,0.7-1.6,1.1-2.6,1.1s-1.9-0.4-2.6-1.1c-0.7-0.7-1-1.6-1-2.7c0-1.1,0.3-2,1-2.7s1.5-1.1,2.6-1.1
			S18.8,395.3,19.5,396z M14.3,451.6v-40.2h5.4v40.2H14.3z"/>
		<path fill="#005E93" stroke="#005E93" stroke-width="4.5" stroke-miterlimit="10" d="M36.7,446.8l23.8,0.1l1.5,4.8l-32-0.1v-4.2
			l23.3-31.2l-22.6-0.1v-4.8l29.3,0.1v4.2L36.7,446.8z"/>
	</g>
</g>
</svg>
