<?xml version="1.0" encoding="utf-8"?>
<!-- Generator: Adobe Illustrator 19.0.0, SVG Export Plug-In . SVG Version: 6.00 Build 0)  -->
<svg version="1.1" id="Layer_1" xmlns="http://www.w3.org/2000/svg" xmlns:xlink="http://www.w3.org/1999/xlink" x="0px" y="0px"
	 width="80px" height="80px" viewBox="0 0 80 80" style="enable-background:new 0 0 80 80;" xml:space="preserve">
<g id="XMLID_20_">
	<polygon id="XMLID_30_" style="fill:#c13c44;" points="70.8,9.5 70.7,9.5 66.4,15.2 66.4,15.3 50.1,36.7 44.5,29.4 38.4,29.4 
		47,40.7 38.8,51.5 45,51.5 50.1,44.8 55.2,51.5 61.4,51.5 53.2,40.7 66.4,23.4 66.4,67.2 13.6,67.2 13.6,56.3 8.7,56.3 8.7,72.1 
		71.3,72.1 71.3,16.9 71.3,8.9 	"/>
	<polygon id="XMLID_29_" style="fill:#c13c44;" points="13.6,14.4 60.8,14.4 64.5,9.5 8.7,9.5 8.7,24.7 13.6,24.7 	"/>
	<path id="XMLID_26_" style="fill:#c13c44;" d="M32.7,57.4v-6h4.5v-7.5h-4.5V23.6h-7.5L8.8,43.3l3,8.1h13.4v6H32.7z M17.2,43.9
		l8-9.5v9.5H17.2z"/>
</g>
</svg>
